<svg width="0" height="0" class="hidden">
  <symbol fill="none" xmlns="http://www.w3.org/2000/svg" viewBox="0 0 49 32" id="aExpress">
    <rect x="0.921875" y="0.5" width="47" height="31" rx="3.5" fill="white"></rect>
    <g clip-path="url(#clip0_4046_176982)">
      <path d="M33.4086 10.8984L32.6465 12.5892H34.1748L33.4086 10.8984ZM24.615 11.9461C24.7587 11.8775 24.8432 11.7283 24.8432 11.5429C24.8432 11.3613 24.7544 11.2298 24.6108 11.1679C24.4799 11.0994 24.2787 11.0915 24.0857 11.0915H22.7223V12.0336H24.0674C24.2828 12.0336 24.4628 12.0307 24.615 11.9461ZM7.14552 10.8984L6.3921 12.5892H7.90349L7.14552 10.8984ZM42.2238 21.7298H40.0857V20.8202H42.2152C42.4263 20.8202 42.5742 20.7948 42.6632 20.7151C42.7474 20.644 42.7949 20.5435 42.7941 20.4385C42.7941 20.3149 42.7404 20.2167 42.6587 20.158C42.5786 20.0932 42.4615 20.0638 42.2686 20.0638C41.2291 20.0314 39.9321 20.0931 39.9321 18.7507C39.9321 18.1355 40.3588 17.4878 41.5207 17.4878H43.7261V16.6438H41.6771C41.0587 16.6438 40.6094 16.7794 40.2914 16.9903V16.6438H37.2606C36.776 16.6438 36.2072 16.7538 35.9381 16.9903V16.6438H30.5256V16.9903C30.095 16.7057 29.3681 16.6438 29.0328 16.6438H25.4627V16.9903C25.1221 16.6881 24.3641 16.6438 23.9024 16.6438H19.9069L18.9928 17.5497L18.1364 16.6438H12.168V22.5635H18.0238L18.9658 21.643L19.8532 22.5635L23.4628 22.5664V21.1739H23.8177C24.2966 21.1809 24.8615 21.1631 25.3599 20.9659V22.5633H28.3372V21.0204H28.4808C28.664 21.0204 28.6822 21.0274 28.6822 21.1951V22.563H37.7267C38.3009 22.563 38.9012 22.4286 39.2335 22.1841V22.563H42.1024C42.6993 22.563 43.2824 22.4864 43.726 22.2902V21.1875C43.4572 21.5475 42.9329 21.7301 42.2237 21.7301L42.2238 21.7298ZM23.8652 20.3321H22.4836V21.755H20.3317L18.9683 20.3507L17.5516 21.755H13.1659V17.5128H17.619L18.9812 18.9034L20.3894 17.5128H23.9273C24.8059 17.5128 25.7931 17.7356 25.7931 18.9104C25.7931 20.0888 24.8329 20.3321 23.8652 20.3321ZM30.5082 20.1398C30.6646 20.3468 30.6871 20.5401 30.6917 20.9141V21.755H29.58V21.2243C29.58 20.9691 29.6069 20.5912 29.401 20.394C29.2395 20.242 28.9927 20.2058 28.5887 20.2058H27.4055V21.755H26.2931V17.5129H28.8491C29.4098 17.5129 29.818 17.5357 30.1813 17.713C30.5307 17.9063 30.7507 18.1712 30.7507 18.6551C30.7505 19.3321 30.2574 19.6775 29.9659 19.7837C30.2122 19.8669 30.4136 20.0162 30.5082 20.1398ZM35.0817 18.3902H32.489V19.1614H35.0183V20.0269H32.489V20.871L35.0817 20.8748V21.755H31.3864V17.5128H35.0817V18.3902ZM37.9267 21.7549H35.7704V20.8453H37.9182C38.1282 20.8453 38.2771 20.8198 38.3704 20.7402C38.4465 20.6746 38.5013 20.5792 38.5013 20.4637C38.5013 20.34 38.442 20.2418 38.3661 20.1829C38.2814 20.1183 38.1645 20.089 37.9718 20.089C36.9364 20.0565 35.6397 20.1182 35.6397 18.7759C35.6397 18.1605 36.062 17.5129 37.2227 17.5129H39.4424V18.4157H37.4113C37.21 18.4157 37.0791 18.4227 36.9678 18.4925C36.8464 18.5612 36.8014 18.6631 36.8014 18.7975C36.8014 18.9575 36.9044 19.0665 37.0436 19.1135C37.1605 19.1507 37.2859 19.1616 37.4745 19.1616L38.0706 19.1765C38.6714 19.1897 39.0842 19.2851 39.335 19.5176C39.5504 19.7218 39.6662 19.9797 39.6662 20.4163C39.6661 21.3289 39.0433 21.7549 37.9267 21.7549ZM29.3397 18.4586C29.2059 18.3858 29.0085 18.382 28.8115 18.382H27.4481V19.3347H28.7932C29.0086 19.3347 29.1917 19.3277 29.3397 19.2473C29.4832 19.1678 29.5691 19.0215 29.5691 18.8401C29.5691 18.6587 29.4832 18.5273 29.3397 18.4586ZM41.7103 18.3819C41.5089 18.3819 41.3749 18.3889 41.2622 18.4585C41.1454 18.5273 41.1005 18.6292 41.1005 18.7638C41.1005 18.9237 41.1992 19.0326 41.3426 19.0798C41.4595 19.117 41.5848 19.1278 41.7692 19.1278L42.3694 19.1425C42.9748 19.1562 43.3792 19.2516 43.6257 19.4841C43.6706 19.5163 43.6975 19.5526 43.7284 19.589V18.382H41.7104L41.7103 18.3819ZM23.9035 18.3819H22.4599V19.4623H23.8907C24.316 19.4623 24.5806 19.269 24.5808 18.9021C24.5806 18.5311 24.3032 18.3819 23.9035 18.3819ZM14.2687 18.3819V19.1532H16.6993V20.0187H14.2687V20.8627H16.9908L18.2555 19.6182L17.0445 18.3819H14.2687ZM21.3768 21.3485V17.9475L19.6769 19.6206L21.3768 21.3485ZM14.3616 14.5375V15.2684H23.6116L23.6073 13.7221H23.7863C23.9117 13.7261 23.9482 13.7367 23.9482 13.9262V15.2685H28.7324V14.9085C29.1183 15.0978 29.7184 15.2685 30.5082 15.2685H32.5209L32.9516 14.3265H33.9066L34.3279 15.2685H38.2064V14.3737L38.7936 15.2684H41.9017V9.35352H38.8259V10.0521L38.3952 9.35352H35.2389V10.0521L34.8434 9.35352H30.58C29.8662 9.35352 29.2391 9.44471 28.7323 9.69891V9.35352H25.7902V9.69891C25.4676 9.4369 25.0282 9.35352 24.5398 9.35352H13.7911L13.07 10.8813L12.3293 9.35352H8.94382V10.0521L8.57183 9.35352H5.68457L4.3438 12.1659V14.4155L6.3264 10.1744H7.97146L9.85438 14.1899V10.1744H11.6615L13.1105 13.0515L14.4416 10.1744H16.285V14.4155H15.1501L15.146 11.0939L13.5405 14.4155H12.5683L10.9587 11.091V14.4155H8.7067L8.28129 13.4695H5.97603L5.54622 14.4155H4.34375V15.2688H6.23557L6.66209 14.3267H7.61714L8.04255 15.2688H11.7646V14.5485L12.0968 15.2718H14.029L14.3613 14.5376L14.3616 14.5375ZM28.9378 10.6687C29.2955 10.3302 29.8561 10.1741 30.6191 10.1741H31.691V11.0829H30.6416C30.2377 11.0829 30.0093 11.1379 29.7897 11.3342C29.6008 11.5127 29.4714 11.8503 29.4714 12.2948C29.4714 12.7492 29.5701 13.0768 29.7758 13.2908C29.9462 13.4586 30.2561 13.5095 30.5475 13.5095H31.0449L32.6053 10.1743H34.2641L36.1387 14.1858V10.1743H37.8245L39.7707 13.128V10.1743H40.9048V14.4153H39.3358L37.2372 11.2322V14.4153H34.9823L34.5515 13.4693H32.2515L31.8335 14.4153H30.5378C29.9997 14.4153 29.3183 14.3064 28.9325 13.9462C28.5433 13.5862 28.341 13.0984 28.341 12.3272C28.3408 11.6981 28.4616 11.1231 28.9378 10.6687ZM26.6604 10.1742H27.7901V14.4153H26.6604V10.1742ZM21.5671 10.1742H24.1136C24.6793 10.1742 25.0964 10.1879 25.4544 10.3773C25.8046 10.5668 26.0146 10.8433 26.0146 11.3163C26.0146 11.9926 25.5216 12.3419 25.2346 12.4469C25.4767 12.5313 25.6838 12.6804 25.7824 12.804C25.9387 13.0149 25.9656 13.2034 25.9656 13.5821V14.4153H24.8489L24.8447 13.8805C24.8447 13.6252 24.8714 13.2582 24.67 13.0543C24.5083 12.9052 24.2616 12.8727 23.8629 12.8727H22.6744V14.4153H21.5672L21.5671 10.1742ZM17.1037 10.1742H20.8024V11.0573H18.211V11.8218H20.7402V12.6912H18.211V13.5382H20.8024V14.4153H17.1037V10.1742Z" fill="#3285D2"></path>
    </g>
    <rect x="0.921875" y="0.5" width="47" height="31" rx="3.5" stroke="#D5DEE8"></rect>
    <defs>
      <clipPath id="clip0_4046_176982">
        <rect width="39.3846" height="14.7692" fill="white" transform="translate(4.34375 8.61523)"></rect>
      </clipPath>
    </defs>
  </symbol>
  <symbol fill="none" xmlns="http://www.w3.org/2000/svg" viewBox="0 0 49 32" id="applePay">
    <rect x="0.921875" y="0.5" width="47" height="31" rx="3.5" fill="white"></rect>
    <path d="M13.817 10.8049C13.6113 11.0573 13.349 11.26 13.0502 11.3975C12.7514 11.5349 12.4243 11.6034 12.0941 11.5975C12.073 11.2823 12.1166 10.9662 12.2222 10.6677C12.3279 10.3692 12.4936 10.0943 12.7096 9.85918C13.1442 9.36779 13.7567 9.05987 14.4187 9C14.4661 9.65517 14.2503 10.3026 13.817 10.8049V10.8049ZM14.4118 11.7241C13.4615 11.6709 12.648 12.2502 12.1967 12.2502C11.7388 12.2502 11.0481 11.7507 10.2961 11.764C9.80696 11.776 9.32949 11.9126 8.91099 12.1603C8.4925 12.4079 8.14748 12.7581 7.91011 13.176C6.8846 14.8943 7.64348 17.4386 8.63479 18.8372C9.12022 19.5299 9.7012 20.2892 10.467 20.2626C11.1917 20.2359 11.479 19.803 12.354 19.803C13.2359 19.803 13.4889 20.2626 14.2546 20.2492C15.0476 20.2359 15.5467 19.5566 16.0321 18.8639C16.3747 18.374 16.6419 17.8377 16.8252 17.2721C16.3689 17.0783 15.98 16.7592 15.7057 16.3537C15.4315 15.9482 15.2836 15.4736 15.2801 14.9876C15.2869 14.5562 15.4051 14.1334 15.6238 13.7584C15.8425 13.3835 16.1547 13.0686 16.5312 12.843C16.2901 12.5096 15.9734 12.2351 15.6057 12.041C15.2381 11.8469 14.8295 11.7384 14.4118 11.7241ZM19.9017 9.79249V20.176H21.5562V16.626H23.8465C25.9385 16.626 27.4084 15.2274 27.4084 13.2026C27.4084 11.1779 25.9659 9.79249 23.9012 9.79249H19.9017ZM21.5562 11.1512H23.4637C24.8993 11.1512 25.7198 11.8972 25.7198 13.2092C25.7198 14.5213 24.8994 15.2739 23.4568 15.2739H21.5562V11.1512ZM30.4303 20.2558C30.9214 20.2691 31.4071 20.153 31.8366 19.9198C32.266 19.6866 32.6233 19.3449 32.871 18.9304H32.9052V20.1759H34.4366V15.0076C34.4366 13.509 33.206 12.5433 31.3122 12.5433C29.5552 12.5433 28.2562 13.5223 28.2083 14.8677H29.6987C29.8218 14.2283 30.4303 13.8087 31.2643 13.8087C32.2763 13.8087 32.8436 14.2683 32.8436 15.1141V15.6869L30.7789 15.8068C28.8578 15.9201 27.8186 16.686 27.8186 18.018C27.8186 19.3634 28.892 20.2558 30.4303 20.2558ZM30.8747 19.0236C29.9927 19.0236 29.4321 18.6107 29.4321 17.978C29.4321 17.3253 29.9722 16.9457 31.0045 16.8857L32.8436 16.7725V17.3586C32.8436 18.3311 31.9959 19.0237 30.8747 19.0237V19.0236ZM36.4808 23C38.0942 23 38.8531 22.4005 39.5163 20.5823L42.4219 12.6433H40.7401L38.7916 18.7774H38.7574L36.8089 12.6433H35.0792L37.8823 20.2026L37.7318 20.6622C37.4788 21.4415 37.0686 21.7412 36.3371 21.7412C36.2072 21.7412 35.9542 21.7278 35.8517 21.7146V22.96C36.0602 22.9875 36.2704 23.0008 36.4808 23Z" fill="black"></path>
    <rect x="0.921875" y="0.5" width="47" height="31" rx="3.5" stroke="#E6ECF2"></rect>
  </symbol>
  <symbol fill="none" xmlns="http://www.w3.org/2000/svg" viewBox="0 0 49 32" id="elo">
    <rect x="0.921875" y="0.5" width="47" height="31" rx="3.5" fill="white"></rect>
    <path d="M11.073 12.0668C11.4674 11.9333 11.8908 11.8637 12.3316 11.8637C14.2572 11.8637 15.8638 13.2337 16.2292 15.0507L18.9552 14.4934C18.3288 11.4051 15.6028 9.07715 12.3316 9.07715C11.5834 9.07715 10.8642 9.19906 10.1914 9.42546L11.073 12.0668Z" fill="#20252A"></path>
    <path d="M7.85362 20.9143L9.69803 18.8244C8.87443 18.0929 8.35822 17.0306 8.35822 15.8405C8.35822 14.6562 8.87443 13.5881 9.69803 12.8624L7.85362 10.7783C6.45582 12.0206 5.57422 13.8261 5.57422 15.8463C5.57422 17.8607 6.45582 19.6719 7.85362 20.9143Z" fill="#20252A"></path>
    <path d="M16.2272 16.6406C15.856 18.4577 14.2552 19.8219 12.3296 19.8219C11.8888 19.8219 11.4654 19.7522 11.0652 19.6187L10.1836 22.2601C10.8564 22.4864 11.5814 22.6084 12.3296 22.6084C15.6008 22.6084 18.3268 20.2863 18.9532 17.1979L16.2272 16.6406Z" fill="#20252A"></path>
    <path d="M28.0384 18.511C27.5861 18.9523 26.9771 19.2193 26.3042 19.2076C25.8402 19.2018 25.4112 19.0625 25.0514 18.8303L24.1466 20.2701C24.7672 20.659 25.4922 20.8912 26.2811 20.9028C27.4236 20.9202 28.4676 20.4674 29.2275 19.7301L28.0384 18.511ZM26.4029 12.6419C24.1292 12.6071 22.2501 14.4299 22.2152 16.7056C22.2036 17.559 22.4472 18.3601 22.8822 19.0219L30.3527 15.8231C29.9351 14.0294 28.3344 12.6767 26.403 12.6419H26.4029ZM23.9263 17.0306C23.9147 16.9377 23.9089 16.839 23.9089 16.7404C23.9321 15.3993 25.0342 14.3254 26.3739 14.3486C27.1047 14.3602 27.7542 14.6911 28.1892 15.2136L23.9263 17.0306ZM32.7017 10.7842V18.7548L34.0822 19.3295L33.4267 20.9027L32.0579 20.3338C31.7506 20.2003 31.5417 19.9971 31.3851 19.7649C31.2343 19.5327 31.1183 19.2075 31.1183 18.778V10.7842H32.7017ZM37.684 14.4705C37.9276 14.3892 38.1828 14.3486 38.4554 14.3486C39.6328 14.3486 40.6072 15.1846 40.8334 16.2934L42.498 15.9508C42.1152 14.0641 40.4506 12.6477 38.4554 12.6477C37.9972 12.6477 37.5564 12.7231 37.1504 12.8567L37.684 14.4705ZM35.7177 19.8636L36.8429 18.5922C36.3384 18.1452 36.0251 17.495 36.0251 16.7694C36.0251 16.0437 36.3441 15.3935 36.8429 14.9523L35.7177 13.681C34.8652 14.4357 34.3257 15.5445 34.3257 16.7752C34.3257 18.0059 34.8652 19.1089 35.7177 19.8636ZM40.8334 17.2628C40.6072 18.3716 39.627 19.2075 38.4554 19.2075C38.1886 19.2075 37.9276 19.1611 37.684 19.0799L37.1446 20.6937C37.5564 20.833 37.9972 20.9085 38.4554 20.9085C40.4506 20.9085 42.1152 19.492 42.498 17.6053L40.8334 17.2628Z" fill="#20252A"></path>
    <rect x="0.921875" y="0.5" width="47" height="31" rx="3.5" stroke="#D5DEE8"></rect>
  </symbol>
  <symbol fill="none" xmlns="http://www.w3.org/2000/svg" viewBox="0 0 49 32" id="googlePay">
    <rect x="0.921875" y="0.5" width="47" height="31" rx="3.5" fill="white"></rect>
    <path d="M23.5567 15.8379V19.6406H22.375V10.2497H25.509C25.8831 10.2417 26.255 10.3094 26.6033 10.4489C26.9516 10.5885 27.2694 10.7971 27.5383 11.0626C27.81 11.3121 28.0262 11.618 28.1724 11.9599C28.3186 12.3017 28.3915 12.6716 28.3861 13.0445C28.3938 13.4195 28.3221 13.7918 28.1758 14.1358C28.0295 14.4798 27.812 14.7875 27.5383 15.0377C26.9903 15.5712 26.3139 15.8377 25.509 15.8372H23.5567V15.8379ZM23.5567 11.4058V14.684H25.5383C25.7556 14.6906 25.9718 14.6508 26.1731 14.5672C26.3744 14.4836 26.5564 14.358 26.7075 14.1985C27.0056 13.9026 27.1764 13.4979 27.1823 13.0734C27.1881 12.649 27.0286 12.2396 26.7387 11.9352C26.7285 11.9245 26.7181 11.9138 26.7075 11.9034C26.5583 11.7405 26.377 11.6118 26.1754 11.5259C25.9738 11.44 25.7567 11.3988 25.5383 11.4051H23.5567V11.4058Z" fill="#5F6368"></path>
    <path d="M31.1083 13.0059C31.9817 13.0059 32.6712 13.2441 33.1766 13.7207C33.6821 14.1972 33.9345 14.8506 33.934 15.6809V19.6409H32.8038V18.7492H32.7524C32.2631 19.4836 31.6123 19.8507 30.8001 19.8507C30.1067 19.8507 29.5267 19.6409 29.0599 19.2213C28.8359 19.0287 28.6568 18.7875 28.5356 18.5153C28.4145 18.2431 28.3544 17.9467 28.3597 17.6478C28.3597 16.9829 28.6058 16.4541 29.0981 16.0615C29.5903 15.6689 30.2474 15.4721 31.0694 15.4711C31.7711 15.4711 32.349 15.6022 32.803 15.8644V15.5887C32.8044 15.3849 32.7613 15.1834 32.6768 14.9987C32.5924 14.814 32.4688 14.6508 32.315 14.5209C32.0025 14.2331 31.5952 14.0761 31.1744 14.0811C30.5143 14.0811 29.992 14.3653 29.6074 14.9338L28.5667 14.2647C29.1392 13.4255 29.9864 13.0059 31.1083 13.0059ZM29.5795 17.674C29.5787 17.8275 29.6139 17.979 29.6821 18.1159C29.7502 18.2527 29.8495 18.371 29.9715 18.4608C30.2328 18.6706 30.5572 18.7818 30.8896 18.7755C31.3883 18.7746 31.8662 18.572 32.2188 18.212C32.6102 17.8358 32.806 17.3945 32.806 16.888C32.4375 16.5883 31.9238 16.4384 31.2647 16.4384C30.7847 16.4384 30.3844 16.5565 30.0639 16.7928C29.7403 17.0326 29.5795 17.3241 29.5795 17.674Z" fill="#5F6368"></path>
    <path d="M40.4208 13.2148L36.4751 22.4724H35.2553L36.7195 19.2332L34.125 13.2148H35.4094L37.2847 17.8305H37.3103L39.1342 13.2148H40.4208Z" fill="#5F6368"></path>
    <path d="M18.7816 15.0179C18.782 14.6502 18.7516 14.2832 18.6905 13.9209H13.707V15.9987H16.5614C16.503 16.3306 16.3793 16.6469 16.1979 16.9287C16.0166 17.2104 15.7812 17.4518 15.5059 17.6382V18.9869H17.2094C18.2069 18.048 18.7816 16.6596 18.7816 15.0179Z" fill="#4285F4"></path>
    <path d="M13.7059 20.2902C15.1319 20.2902 16.3327 19.8121 17.2083 18.9879L15.5048 17.6391C15.0307 17.9673 14.42 18.1547 13.7059 18.1547C12.3275 18.1547 11.1576 17.206 10.7392 15.9277H8.98438V17.3177C9.42421 18.2112 10.0986 18.9623 10.9324 19.4872C11.7661 20.0121 12.7264 20.2901 13.7059 20.2902Z" fill="#34A853"></path>
    <path d="M10.7394 15.9277C10.5183 15.2578 10.5183 14.5324 10.7394 13.8626V12.4727H8.98457C8.61457 13.2243 8.42188 14.0539 8.42188 14.8951C8.42188 15.7364 8.61457 16.566 8.98457 17.3176L10.7394 15.9277Z" fill="#FBBC04"></path>
    <path d="M13.7059 11.6359C14.4595 11.6233 15.1877 11.914 15.733 12.4451L17.2413 10.9053C16.2849 9.9882 15.0179 9.48471 13.7059 9.50035C12.7264 9.5004 11.7661 9.77838 10.9324 10.3033C10.0986 10.8282 9.42421 11.5793 8.98438 12.4728L10.7392 13.8628C11.1576 12.5845 12.3275 11.6359 13.7059 11.6359Z" fill="#EA4335"></path>
    <rect x="0.921875" y="0.5" width="47" height="31" rx="3.5" stroke="#E6ECF2"></rect>
  </symbol>
  <symbol fill="none" xmlns="http://www.w3.org/2000/svg" viewBox="0 0 49 32" id="hipercard">
    <rect x="0.921875" y="0.5" width="47" height="31" rx="3.5" fill="white"></rect>
    <path fill-rule="evenodd" clip-rule="evenodd" d="M15.2553 6.68066H11.109C9.28039 6.76783 7.77982 7.51365 7.34782 9.05263C7.12782 9.85386 7.00496 10.7342 6.82153 11.5672C5.92668 15.795 5.13353 20.1343 4.26953 24.275H36.5427C39.0399 24.275 40.7519 23.7433 41.2147 21.7443C41.4267 20.816 41.6387 19.7614 41.8433 18.7379C42.6433 14.7548 43.4433 10.7717 44.2696 6.68066H15.2553Z" fill="#B82327"></path>
    <path fill-rule="evenodd" clip-rule="evenodd" d="M14.9346 12.9317C15.106 12.8128 15.3346 12.2655 15.0757 12.0352C15.0162 11.9954 14.9489 11.9691 14.8784 11.9581C14.8078 11.9472 14.7358 11.9518 14.6672 11.9717C14.6009 11.9778 14.5366 11.9971 14.4777 12.0284C14.4189 12.0597 14.3668 12.1024 14.3243 12.1541C14.2146 12.3048 14.1123 12.7649 14.2849 12.9317C14.3828 12.9919 14.4951 13.0237 14.6097 13.0237C14.7243 13.0237 14.8367 12.9919 14.9346 12.9317ZM12.4689 12.0352C12.3432 12.852 12.202 13.6458 12.0603 14.4464C11.1575 14.4545 10.2386 14.4937 9.36716 14.4227C9.53231 13.6452 9.65002 12.8122 9.81459 12.0352H8.84888C8.50602 14.0262 8.18145 16.0489 7.79688 18.0006H8.78602C8.94316 17.0014 9.08431 15.986 9.28831 15.0416C10.1779 14.9977 11.0693 15.0056 11.958 15.0652C11.7929 16.057 11.5889 17.0089 11.4317 18.0093H12.4209C12.7426 15.9889 13.0729 13.9875 13.4729 12.0439H12.4689V12.0352ZM26.4855 13.7485C26.1709 13.6357 25.8259 13.6465 25.5189 13.7788C25.212 13.9111 24.9654 14.1552 24.8283 14.4626C24.8912 14.2403 24.9146 13.9788 24.9695 13.7485H24.2003C24.0117 15.224 23.7369 16.6042 23.47 18.0006H24.3415C24.4152 17.0774 24.5649 16.162 24.7889 15.2638C24.8273 15.0947 24.9007 14.9358 25.0043 14.7975C25.1079 14.6592 25.2394 14.5447 25.3901 14.4615C25.5407 14.3783 25.7072 14.3283 25.8784 14.3149C26.0495 14.3014 26.2216 14.3248 26.3832 14.3835C26.3912 14.1532 26.462 13.9708 26.4855 13.7485ZM26.9723 17.0008C26.8932 16.7364 26.8666 16.4588 26.894 16.184C26.9186 15.5908 27.1244 15.0199 27.4832 14.5497C27.9403 14.0977 28.834 14.1768 29.5483 14.4308C29.5718 14.1849 29.6192 13.969 29.6506 13.7329C28.4803 13.5424 27.3649 13.6613 26.7769 14.2882C26.4567 14.6906 26.2284 15.1595 26.1084 15.6613C25.9883 16.1632 25.9796 16.6856 26.0826 17.1913C26.3969 18.2223 27.7969 18.2881 28.9329 17.8892C28.9798 17.6831 29.0112 17.4528 29.0506 17.2386C28.4329 17.548 27.2472 17.7149 26.9723 17.0008ZM36.7329 13.7722C35.9632 13.3837 35.3272 14.0337 35.0758 14.4227C35.1466 14.2242 35.154 13.9546 35.2169 13.7485H34.4472C34.2432 15.2078 33.99 16.6198 33.7015 18.0006H34.5889C34.6172 17.4857 34.6854 16.9738 34.7929 16.4697C34.9815 15.2875 35.25 13.995 36.6146 14.3835C36.662 14.1849 36.678 13.9546 36.7329 13.7722ZM14.0472 13.7485C14.0237 13.7485 14.0237 13.7803 14.0237 13.812C13.8352 15.2552 13.5763 16.636 13.2935 18.0006H14.1649C14.3769 16.5413 14.6123 15.1143 14.9106 13.7485H14.0472ZM21.6877 13.6694C21.1135 13.6756 20.5632 13.9027 20.1489 14.3044C19.5808 15.034 19.3186 15.9597 19.4186 16.8824C19.5757 18.2944 21.3186 18.2471 22.7163 17.9059C22.7397 17.66 22.8026 17.4441 22.834 17.208C22.2626 17.4222 21.2637 17.7316 20.6666 17.3506C20.2192 17.0649 20.2192 16.3433 20.3603 15.7164C21.2946 15.6846 22.2763 15.6927 23.2106 15.7164C23.342 15.2714 23.3688 14.8015 23.2889 14.3442C23.1112 13.7647 22.41 13.6134 21.6877 13.6694ZM22.5203 15.224H20.4786C20.5222 14.944 20.6616 14.6882 20.8724 14.5013C21.0833 14.3143 21.3524 14.2079 21.6329 14.2005C22.254 14.1768 22.7112 14.4308 22.5203 15.224ZM18.398 13.7485C18.0561 13.6475 17.6956 13.6286 17.3451 13.6933C16.9947 13.7581 16.6641 13.9047 16.3797 14.1214C16.3797 14.137 16.3717 14.137 16.3563 14.137C16.3643 14.1289 16.3717 14.1289 16.3797 14.1214C16.3877 13.9863 16.4369 13.8905 16.4426 13.7566H15.6963C15.382 15.8509 15.0106 17.8892 14.6283 19.9044H15.4855C15.6112 19.1193 15.6975 18.2938 15.87 17.5561C16.0666 18.3337 17.362 18.183 17.9117 17.8811C19.0415 17.2629 19.9055 14.3275 18.3975 13.7485H18.398ZM17.7072 17.1994C17.2437 17.6993 16.0975 17.6912 16.0112 16.853C16.0133 16.4716 16.0689 16.0924 16.1763 15.7268C16.2472 15.3458 16.294 14.981 16.3569 14.6398C16.814 14.0764 18.1632 14.0048 18.2963 14.9492C18.3947 15.748 18.1834 16.5544 17.7066 17.1994H17.7072ZM39.9758 11.9082C39.9081 12.5484 39.8059 13.1843 39.6695 13.8132C37.5335 13.1308 36.23 14.7177 36.2535 16.6769C36.2329 17.0439 36.3414 17.4064 36.5598 17.7004C36.861 17.9379 37.2242 18.0815 37.6049 18.1139C37.9856 18.1463 38.3675 18.066 38.7038 17.8828C38.8192 17.7941 38.9222 17.69 39.0101 17.5734C39.0672 17.5018 39.1592 17.3119 39.1752 17.3674C39.1317 17.5764 39.1055 17.7888 39.0969 18.0023H39.882C40.09 15.9571 40.4143 13.9256 40.8535 11.918H39.9741L39.9758 11.9082ZM38.0283 17.5324C37.4392 17.548 37.1489 17.1757 37.1409 16.5725C37.1175 15.5097 37.5809 14.3275 38.5123 14.2242C38.879 14.1922 39.248 14.2494 39.5883 14.391C39.2929 15.5807 39.4026 17.5007 38.0283 17.5324ZM30.5295 13.7485C30.49 13.9944 30.4198 14.2103 30.3643 14.4464C30.8746 14.3194 32.4786 13.9148 32.626 14.6132C32.6545 14.8355 32.619 15.0614 32.5238 15.2638C31.0792 15.1287 29.9009 15.3671 29.5946 16.4062C29.4801 16.6818 29.4637 16.9889 29.5482 17.2753C29.6327 17.5617 29.8129 17.8097 30.058 17.9769C30.45 18.1309 30.8808 18.1522 31.2857 18.0377C31.6906 17.9232 32.0479 17.679 32.3038 17.3419C32.2572 17.5555 32.2361 17.7739 32.2409 17.9925H32.9866C33.0054 17.3344 33.079 16.679 33.2066 16.0333C33.3404 15.5114 33.422 14.9773 33.45 14.4389C33.3969 13.3202 31.558 13.7168 30.5295 13.7485ZM31.9432 17.1832C31.4958 17.6277 30.2392 17.7541 30.3649 16.6914C30.4746 15.8111 31.4169 15.6286 32.446 15.7551C32.4255 16.2716 32.2501 16.7696 31.9432 17.1832Z" fill="white"></path>
    <rect x="0.921875" y="0.5" width="47" height="31" rx="3.5" stroke="#D5DEE8"></rect>
  </symbol>
  <symbol fill="none" xmlns="http://www.w3.org/2000/svg" viewBox="0 0 49 32"  id="mastercard">
    <rect x="0.921875" y="0.5" width="47" height="31" rx="3.5" fill="white"></rect>
    <path d="M29.1951 7.59668H19.6445V24.3976H29.1951V7.59668Z" fill="#FF5F00"></path>
    <path d="M20.2522 16.0021C20.2509 14.3843 20.6256 12.7874 21.3478 11.3323C22.0701 9.87718 23.1211 8.60194 24.4211 7.60309C22.8109 6.36438 20.8772 5.5941 18.8409 5.38029C16.8046 5.16647 14.7479 5.51775 12.9059 6.39397C11.0639 7.2702 9.5109 8.63601 8.4244 10.3353C7.3379 12.0346 6.76172 13.9989 6.76172 16.0036C6.76172 18.0082 7.3379 19.9725 8.4244 21.6718C9.5109 23.3711 11.0639 24.7369 12.9059 25.6131C14.7479 26.4894 16.8046 26.8406 18.8409 26.6268C20.8772 26.413 22.8109 25.6427 24.4211 24.404C23.1207 23.4049 22.0695 22.1292 21.3472 20.6735C20.6249 19.2178 20.2505 17.6204 20.2522 16.0021Z" fill="#EB001B"></path>
    <path d="M41.0464 22.6206V22.2763H41.1889V22.2051H40.8281V22.2763H40.9706V22.6206H41.0464ZM41.7468 22.6206V22.2051H41.6376L41.5103 22.5019L41.383 22.2051H41.2738V22.6206H41.3496V22.306L41.4679 22.5761H41.5497L41.668 22.306V22.6206H41.7468Z" fill="#F79E1B"></path>
    <path d="M42.0829 15.9985C42.0829 18.0033 41.5065 19.9677 40.4198 21.667C39.3332 23.3664 37.7799 24.7322 35.9377 25.6083C34.0955 26.4844 32.0386 26.8354 30.0022 26.6213C27.9658 26.4072 26.032 25.6365 24.4219 24.3974C25.7215 23.3977 26.7721 22.1221 27.4946 20.6669C28.217 19.2117 28.5924 17.6149 28.5924 15.997C28.5924 14.379 28.217 12.7822 27.4946 11.327C26.7721 9.87184 25.7215 8.59625 24.4219 7.59651C26.032 6.35742 27.9658 5.58676 30.0022 5.37264C32.0386 5.15852 34.0955 5.50957 35.9377 6.38567C37.7799 7.26177 39.3332 8.62756 40.4198 10.3269C41.5065 12.0263 42.0829 13.9907 42.0829 15.9955V15.9985Z" fill="#F79E1B"></path>
    <rect x="0.921875" y="0.5" width="47" height="31" rx="3.5" stroke="#D5DEE8"></rect>
  </symbol>
  <symbol fill="none" xmlns="http://www.w3.org/2000/svg" viewBox="0 0 48 32" id="qrCode">
    <rect x="0.428571" y="0.428571" width="47.1429" height="31.1429" rx="3" fill="white"></rect>
    <path d="M20.4 12.4H15.6V7.6H20.4V12.4Z" stroke="#20252A" stroke-width="1.2" stroke-miterlimit="10" stroke-linecap="square"></path>
    <path d="M18.4 10.4H17.6V9.6H18.4V10.4Z" stroke="#20252A" stroke-width="1.2" stroke-miterlimit="10" stroke-linecap="square"></path>
    <path d="M30.4 10.4H29.6V9.6H30.4V10.4Z" stroke="#20252A" stroke-width="1.2" stroke-miterlimit="10" stroke-linecap="square"></path>
    <path d="M18.4 22.4H17.6V21.6H18.4V22.4Z" stroke="#20252A" stroke-width="1.2" stroke-miterlimit="10" stroke-linecap="square"></path>
    <path d="M20.4 24.4H15.6V19.6H20.4V24.4Z" stroke="#20252A" stroke-width="1.2" stroke-miterlimit="10" stroke-linecap="square"></path>
    <path d="M32.4 12.4H27.6V7.6H32.4V12.4Z" stroke="#20252A" stroke-width="1.2" stroke-miterlimit="10" stroke-linecap="square"></path>
    <path d="M25.5 14V18" stroke="#20252A" stroke-width="1.2"></path>
    <path d="M29 20.5H33" stroke="#20252A" stroke-width="1.2"></path>
    <path d="M32.5 19L32.5 25" stroke="#20252A" stroke-width="1.2"></path>
    <path d="M21 14.5L26 14.5" stroke="#20252A" stroke-width="1.2"></path>
    <path d="M22 21.5H25" stroke="#20252A" stroke-width="1.2"></path>
    <path d="M24 7.5L26 7.5" stroke="#20252A" stroke-width="1.2"></path>
    <path d="M25.5 17.5H28" stroke="#20252A" stroke-width="1.2"></path>
    <path d="M22 10L26 10" stroke="#20252A" stroke-width="1.2"></path>
    <path d="M15 16.5L20 16.5" stroke="#20252A" stroke-width="1.2"></path>
    <path d="M22.5 11.5V13" stroke="#20252A" stroke-width="1.2"></path>
    <path d="M23.5 16.5V20" stroke="#20252A" stroke-width="1.2"></path>
    <path d="M29.5 14V15.5" stroke="#20252A" stroke-width="1.2"></path>
    <path d="M28.5 19V21" stroke="#20252A" stroke-width="1.2"></path>
    <path d="M30.5 22V25" stroke="#20252A" stroke-width="1.2"></path>
    <path d="M28.5 24V25" stroke="#20252A" stroke-width="1.2"></path>
    <path d="M21.5 15V18" stroke="#20252A" stroke-width="1.2"></path>
    <path d="M22.5 21V23" stroke="#20252A" stroke-width="1.2"></path>
    <path d="M19.5 14V15" stroke="#20252A" stroke-width="1.2"></path>
    <path d="M15.5 14L15.5 18" stroke="#20252A" stroke-width="1.2"></path>
    <path d="M24.5 21V25" stroke="#20252A" stroke-width="1.2"></path>
    <path d="M25.5 10.5V13" stroke="#20252A" stroke-width="1.2"></path>
    <path d="M26.5 19V25" stroke="#20252A" stroke-width="1.2"></path>
    <path d="M22.5 8V10" stroke="#20252A" stroke-width="1.2"></path>
    <path d="M29 17.5L33 17.5" stroke="#20252A" stroke-width="1.2"></path>
    <path d="M28 22.5L31 22.5" stroke="#20252A" stroke-width="1.2"></path>
    <path d="M27 15.5L32 15.5" stroke="#20252A" stroke-width="1.2"></path>
    <path d="M33 14.5L31 14.5" stroke="#20252A" stroke-width="1.2"></path>
    <rect x="0.428571" y="0.428571" width="47.1429" height="31.1429" rx="3" stroke="#E6ECF2" stroke-width="0.857143"></rect>
  </symbol>
  <symbol fill="none" xmlns="http://www.w3.org/2000/svg" viewBox="0 0 49 32"  id="samsungPay">
    <rect x="0.921875" y="0.5" width="47" height="31" rx="3.5" fill="white"></rect>
    <path d="M18.0147 17.6738C17.5541 17.6738 17.1532 17.8152 16.8239 18.1476C16.4871 18.4942 16.3564 18.9887 16.3564 19.4816C16.3564 20.0064 16.4836 20.5182 16.8115 20.8644C17.1421 21.2115 17.55 21.3332 18.024 21.3332C18.5049 21.3332 18.8955 21.1407 19.1928 20.8441C19.5334 20.5022 19.6951 20.0376 19.6951 19.5389C19.6951 18.9925 19.5319 18.5071 19.2017 18.1614C18.9179 17.8639 18.5077 17.6738 18.0147 17.6738ZM15.1875 24.4287V16.7034H16.45V17.2712C16.6243 16.9942 16.963 16.7977 17.229 16.7086C17.4962 16.6219 17.773 16.5771 18.0553 16.5771C18.7528 16.5771 19.4983 16.8093 20.1042 17.4299C20.6632 18.0035 20.9591 18.7007 20.9591 19.5264C20.9591 19.9055 20.8855 20.2787 20.7391 20.6367C20.5974 20.9963 20.3938 21.3129 20.1334 21.5764C19.8581 21.8608 19.5447 22.0755 19.2002 22.2208C18.8564 22.3648 18.5347 22.4381 18.1128 22.4381C17.8058 22.4381 17.5098 22.392 17.2298 22.2958C16.9545 22.2081 16.5687 21.9897 16.4294 21.7514V24.4287H15.1875Z" fill="#034EA2"></path>
    <path d="M29.6131 24.4287L30.6786 21.9927L28.2344 16.7036H29.5648L31.3016 20.6744L32.9033 16.7036H34.2415L30.9191 24.4287H29.6131Z" fill="#034EA2"></path>
    <path d="M23.4613 18.1618C23.1311 18.5073 22.9694 18.9928 22.9694 19.5392C22.9694 20.0378 23.1311 20.5026 23.4716 20.8445C23.7686 21.141 24.1588 21.3336 24.6398 21.3336C25.1149 21.3336 25.5217 21.2119 25.8507 20.8648C26.1813 20.5186 26.3058 20.0068 26.3058 19.4819C26.3058 18.9891 26.1766 18.4954 25.8407 18.148C25.5092 17.8134 25.1096 17.6742 24.6494 17.6742C24.1552 17.6742 23.7458 17.8643 23.4613 18.1618ZM26.2339 22.3363V21.7518C26.0951 21.9901 25.7092 22.2085 25.4347 22.2962C25.1543 22.3923 24.8554 22.4385 24.5513 22.4385C24.1294 22.4385 23.8081 22.3652 23.4628 22.2212C23.1192 22.0759 22.806 21.8612 22.5311 21.5764C22.2695 21.3131 22.066 20.9967 21.9252 20.6378C21.7782 20.2776 21.7031 19.9059 21.7031 19.5268C21.7031 18.7009 21.999 18.0039 22.5588 17.4303C23.1658 16.8097 23.9109 16.5775 24.61 16.5775C24.8903 16.5775 25.1671 16.6223 25.4347 16.71C25.7019 16.7981 26.0413 16.9946 26.2156 17.2716V16.7038H27.4762V22.3363H26.2339Z" fill="#034EA2"></path>
    <path d="M35.5638 13.1297L35.4989 9.36876H36.7029V14.1143H34.9719L33.7732 10.2184H33.7423L33.8108 14.1143H32.6172V9.36876H34.4193L35.5376 13.1297H35.5638Z" fill="#034EA2"></path>
    <path d="M13.6987 9.81004L13.0349 14.1572H11.7227L12.6223 9.3682H14.7863L15.6846 14.1572H14.3765L13.7278 9.81004H13.6987Z" fill="#034EA2"></path>
    <path d="M19.3673 13.0319L19.9684 9.36839H21.9485L22.0571 14.1572H20.8407L20.8067 9.85097H20.7832L19.9705 14.1572H18.7405L17.9248 9.85097H17.8976L17.8675 14.1572H16.6523L16.7629 9.36839H18.7448L19.343 13.0319H19.3673Z" fill="#034EA2"></path>
    <path d="M29.5564 13.4398C29.8981 13.4398 29.9998 13.2118 30.0245 13.0962C30.0345 13.0449 30.0345 12.9746 30.0345 12.9128V9.3693H31.2683V12.8028C31.2683 12.8923 31.2585 13.0717 31.2545 13.1195C31.1713 14.0143 30.4505 14.3018 29.5564 14.3018C28.6639 14.3018 27.9465 14.0143 27.8642 13.1195C27.858 13.0717 27.8492 12.8923 27.8522 12.8028V9.3693H29.0818V12.9128C29.0777 12.9746 29.0837 13.0449 29.0914 13.0962C29.1146 13.2118 29.2203 13.4398 29.5564 13.4398Z" fill="#034EA2"></path>
    <path d="M9.67757 12.806C9.72323 12.9223 9.71002 13.0711 9.68719 13.1606C9.64813 13.3204 9.5387 13.4845 9.21134 13.4845C8.9085 13.4845 8.72642 13.3111 8.72642 13.049L8.72265 12.5842H7.42188V12.9539C7.42188 14.024 8.27245 14.3447 9.18379 14.3447C10.0668 14.3447 10.7895 14.05 10.9032 13.2519C10.9632 12.8365 10.9202 12.5658 10.9002 12.4648C10.6957 11.4591 8.8502 11.1644 8.71246 10.6025C8.68887 10.5032 8.69284 10.405 8.7068 10.3514C8.74189 10.1946 8.84775 10.0277 9.1502 10.0277C9.43775 10.0277 9.60417 10.2039 9.60417 10.4597V10.7597H10.817V10.4234C10.817 9.37859 9.86474 9.21562 9.17567 9.21562C8.3134 9.21562 7.60641 9.49877 7.47754 10.2811C7.44433 10.4926 7.43961 10.6837 7.48716 10.924C7.6998 11.9057 9.42662 12.1867 9.67757 12.806Z" fill="#034EA2"></path>
    <path d="M25.4758 12.8005C25.5245 12.914 25.5041 13.0604 25.4854 13.1501C25.4484 13.3071 25.3366 13.4669 25.0177 13.4669C24.7156 13.4669 24.5339 13.2967 24.5339 13.0368V12.576H23.2422V12.9447C23.2422 14.0047 24.0869 14.3193 24.9926 14.3193C25.859 14.3193 26.5758 14.0282 26.6907 13.2366C26.749 12.8277 26.7066 12.5594 26.6845 12.4556C26.4819 11.4644 24.6565 11.1708 24.522 10.6119C24.4996 10.5191 24.5058 10.4185 24.5162 10.3666C24.5486 10.2147 24.6543 10.0484 24.9554 10.0484C25.24 10.0484 25.4043 10.2187 25.4043 10.4733V10.7688H26.6028V10.4365C26.6028 9.40418 25.6615 9.24251 24.9832 9.24251C24.1267 9.24251 23.4254 9.51766 23.3012 10.2955C23.2622 10.5037 23.2573 10.6923 23.3107 10.934C23.5194 11.9062 25.2283 12.1845 25.4758 12.8005Z" fill="#034EA2"></path>
    <path d="M39.6925 13.391C40.0423 13.391 40.1661 13.1748 40.1885 13.0442C40.1963 12.9902 40.1997 12.922 40.1993 12.8613V12.1683H39.7029V11.4658H41.4231V12.7527C41.4231 12.8423 41.4193 12.9084 41.4057 13.0693C41.325 13.9364 40.557 14.252 39.6944 14.252C38.8349 14.252 38.0706 13.9364 37.9917 13.0693C37.9727 12.9084 37.9727 12.8423 37.9727 12.7527V10.7379C37.9727 10.6515 37.9825 10.5005 37.9951 10.4231C38.1006 9.52264 38.8349 9.23856 39.6944 9.23856C40.557 9.23856 41.3152 9.51967 41.4014 10.4231C41.4193 10.571 41.4106 10.7379 41.4106 10.7379L41.4135 10.8938H40.1885V10.6262C40.1885 10.6262 40.1885 10.5109 40.1716 10.4428C40.151 10.3403 40.0563 10.0973 39.6848 10.0973C39.3361 10.0973 39.2304 10.3275 39.2027 10.4428C39.1876 10.507 39.1847 10.5927 39.1847 10.6707V12.8613C39.1847 12.922 39.1876 12.9902 39.1932 13.0442C39.2172 13.1748 39.3395 13.391 39.6925 13.391Z" fill="#034EA2"></path>
    <rect x="0.921875" y="0.5" width="47" height="31" rx="3.5" stroke="#E6ECF2"></rect>
  </symbol>
  <symbol fill="none" xmlns="http://www.w3.org/2000/svg" viewBox="0 0 49 32" id="amex">
    <rect x="0.921875" y="0.5" width="47" height="31" rx="3.5" fill="white"></rect>
    <g clip-path="url(#clip0_4046_176982)">
      <path d="M33.4086 10.8984L32.6465 12.5892H34.1748L33.4086 10.8984ZM24.615 11.9461C24.7587 11.8775 24.8432 11.7283 24.8432 11.5429C24.8432 11.3613 24.7544 11.2298 24.6108 11.1679C24.4799 11.0994 24.2787 11.0915 24.0857 11.0915H22.7223V12.0336H24.0674C24.2828 12.0336 24.4628 12.0307 24.615 11.9461ZM7.14552 10.8984L6.3921 12.5892H7.90349L7.14552 10.8984ZM42.2238 21.7298H40.0857V20.8202H42.2152C42.4263 20.8202 42.5742 20.7948 42.6632 20.7151C42.7474 20.644 42.7949 20.5435 42.7941 20.4385C42.7941 20.3149 42.7404 20.2167 42.6587 20.158C42.5786 20.0932 42.4615 20.0638 42.2686 20.0638C41.2291 20.0314 39.9321 20.0931 39.9321 18.7507C39.9321 18.1355 40.3588 17.4878 41.5207 17.4878H43.7261V16.6438H41.6771C41.0587 16.6438 40.6094 16.7794 40.2914 16.9903V16.6438H37.2606C36.776 16.6438 36.2072 16.7538 35.9381 16.9903V16.6438H30.5256V16.9903C30.095 16.7057 29.3681 16.6438 29.0328 16.6438H25.4627V16.9903C25.1221 16.6881 24.3641 16.6438 23.9024 16.6438H19.9069L18.9928 17.5497L18.1364 16.6438H12.168V22.5635H18.0238L18.9658 21.643L19.8532 22.5635L23.4628 22.5664V21.1739H23.8177C24.2966 21.1809 24.8615 21.1631 25.3599 20.9659V22.5633H28.3372V21.0204H28.4808C28.664 21.0204 28.6822 21.0274 28.6822 21.1951V22.563H37.7267C38.3009 22.563 38.9012 22.4286 39.2335 22.1841V22.563H42.1024C42.6993 22.563 43.2824 22.4864 43.726 22.2902V21.1875C43.4572 21.5475 42.9329 21.7301 42.2237 21.7301L42.2238 21.7298ZM23.8652 20.3321H22.4836V21.755H20.3317L18.9683 20.3507L17.5516 21.755H13.1659V17.5128H17.619L18.9812 18.9034L20.3894 17.5128H23.9273C24.8059 17.5128 25.7931 17.7356 25.7931 18.9104C25.7931 20.0888 24.8329 20.3321 23.8652 20.3321ZM30.5082 20.1398C30.6646 20.3468 30.6871 20.5401 30.6917 20.9141V21.755H29.58V21.2243C29.58 20.9691 29.6069 20.5912 29.401 20.394C29.2395 20.242 28.9927 20.2058 28.5887 20.2058H27.4055V21.755H26.2931V17.5129H28.8491C29.4098 17.5129 29.818 17.5357 30.1813 17.713C30.5307 17.9063 30.7507 18.1712 30.7507 18.6551C30.7505 19.3321 30.2574 19.6775 29.9659 19.7837C30.2122 19.8669 30.4136 20.0162 30.5082 20.1398ZM35.0817 18.3902H32.489V19.1614H35.0183V20.0269H32.489V20.871L35.0817 20.8748V21.755H31.3864V17.5128H35.0817V18.3902ZM37.9267 21.7549H35.7704V20.8453H37.9182C38.1282 20.8453 38.2771 20.8198 38.3704 20.7402C38.4465 20.6746 38.5013 20.5792 38.5013 20.4637C38.5013 20.34 38.442 20.2418 38.3661 20.1829C38.2814 20.1183 38.1645 20.089 37.9718 20.089C36.9364 20.0565 35.6397 20.1182 35.6397 18.7759C35.6397 18.1605 36.062 17.5129 37.2227 17.5129H39.4424V18.4157H37.4113C37.21 18.4157 37.0791 18.4227 36.9678 18.4925C36.8464 18.5612 36.8014 18.6631 36.8014 18.7975C36.8014 18.9575 36.9044 19.0665 37.0436 19.1135C37.1605 19.1507 37.2859 19.1616 37.4745 19.1616L38.0706 19.1765C38.6714 19.1897 39.0842 19.2851 39.335 19.5176C39.5504 19.7218 39.6662 19.9797 39.6662 20.4163C39.6661 21.3289 39.0433 21.7549 37.9267 21.7549ZM29.3397 18.4586C29.2059 18.3858 29.0085 18.382 28.8115 18.382H27.4481V19.3347H28.7932C29.0086 19.3347 29.1917 19.3277 29.3397 19.2473C29.4832 19.1678 29.5691 19.0215 29.5691 18.8401C29.5691 18.6587 29.4832 18.5273 29.3397 18.4586ZM41.7103 18.3819C41.5089 18.3819 41.3749 18.3889 41.2622 18.4585C41.1454 18.5273 41.1005 18.6292 41.1005 18.7638C41.1005 18.9237 41.1992 19.0326 41.3426 19.0798C41.4595 19.117 41.5848 19.1278 41.7692 19.1278L42.3694 19.1425C42.9748 19.1562 43.3792 19.2516 43.6257 19.4841C43.6706 19.5163 43.6975 19.5526 43.7284 19.589V18.382H41.7104L41.7103 18.3819ZM23.9035 18.3819H22.4599V19.4623H23.8907C24.316 19.4623 24.5806 19.269 24.5808 18.9021C24.5806 18.5311 24.3032 18.3819 23.9035 18.3819ZM14.2687 18.3819V19.1532H16.6993V20.0187H14.2687V20.8627H16.9908L18.2555 19.6182L17.0445 18.3819H14.2687ZM21.3768 21.3485V17.9475L19.6769 19.6206L21.3768 21.3485ZM14.3616 14.5375V15.2684H23.6116L23.6073 13.7221H23.7863C23.9117 13.7261 23.9482 13.7367 23.9482 13.9262V15.2685H28.7324V14.9085C29.1183 15.0978 29.7184 15.2685 30.5082 15.2685H32.5209L32.9516 14.3265H33.9066L34.3279 15.2685H38.2064V14.3737L38.7936 15.2684H41.9017V9.35352H38.8259V10.0521L38.3952 9.35352H35.2389V10.0521L34.8434 9.35352H30.58C29.8662 9.35352 29.2391 9.44471 28.7323 9.69891V9.35352H25.7902V9.69891C25.4676 9.4369 25.0282 9.35352 24.5398 9.35352H13.7911L13.07 10.8813L12.3293 9.35352H8.94382V10.0521L8.57183 9.35352H5.68457L4.3438 12.1659V14.4155L6.3264 10.1744H7.97146L9.85438 14.1899V10.1744H11.6615L13.1105 13.0515L14.4416 10.1744H16.285V14.4155H15.1501L15.146 11.0939L13.5405 14.4155H12.5683L10.9587 11.091V14.4155H8.7067L8.28129 13.4695H5.97603L5.54622 14.4155H4.34375V15.2688H6.23557L6.66209 14.3267H7.61714L8.04255 15.2688H11.7646V14.5485L12.0968 15.2718H14.029L14.3613 14.5376L14.3616 14.5375ZM28.9378 10.6687C29.2955 10.3302 29.8561 10.1741 30.6191 10.1741H31.691V11.0829H30.6416C30.2377 11.0829 30.0093 11.1379 29.7897 11.3342C29.6008 11.5127 29.4714 11.8503 29.4714 12.2948C29.4714 12.7492 29.5701 13.0768 29.7758 13.2908C29.9462 13.4586 30.2561 13.5095 30.5475 13.5095H31.0449L32.6053 10.1743H34.2641L36.1387 14.1858V10.1743H37.8245L39.7707 13.128V10.1743H40.9048V14.4153H39.3358L37.2372 11.2322V14.4153H34.9823L34.5515 13.4693H32.2515L31.8335 14.4153H30.5378C29.9997 14.4153 29.3183 14.3064 28.9325 13.9462C28.5433 13.5862 28.341 13.0984 28.341 12.3272C28.3408 11.6981 28.4616 11.1231 28.9378 10.6687ZM26.6604 10.1742H27.7901V14.4153H26.6604V10.1742ZM21.5671 10.1742H24.1136C24.6793 10.1742 25.0964 10.1879 25.4544 10.3773C25.8046 10.5668 26.0146 10.8433 26.0146 11.3163C26.0146 11.9926 25.5216 12.3419 25.2346 12.4469C25.4767 12.5313 25.6838 12.6804 25.7824 12.804C25.9387 13.0149 25.9656 13.2034 25.9656 13.5821V14.4153H24.8489L24.8447 13.8805C24.8447 13.6252 24.8714 13.2582 24.67 13.0543C24.5083 12.9052 24.2616 12.8727 23.8629 12.8727H22.6744V14.4153H21.5672L21.5671 10.1742ZM17.1037 10.1742H20.8024V11.0573H18.211V11.8218H20.7402V12.6912H18.211V13.5382H20.8024V14.4153H17.1037V10.1742Z" fill="#3285D2"></path>
    </g>
    <rect x="0.921875" y="0.5" width="47" height="31" rx="3.5" stroke="#D5DEE8"></rect>
    <defs>
      <clipPath id="clip0_4046_176982">
        <rect width="39.3846" height="14.7692" fill="white" transform="translate(4.34375 8.61523)"></rect>
      </clipPath>
    </defs>
  </symbol>
  <symbol fill="none" xmlns="http://www.w3.org/2000/svg" viewBox="0 0 49 32" id="visa">
    <rect x="0.921875" y="0.5" width="47" height="31" rx="3.5" fill="white"></rect>
    <g clip-path="url(#clip0_4046_176980)">
      <path d="M20.2479 10.0886L18.2561 21.9705H21.4406L23.4339 10.0886H20.2479Z" fill="#1A1F71"></path>
      <path d="M30.0957 9.8457C31.3308 9.8457 32.32 10.104 32.951 10.3447L32.5193 12.9199L32.2338 12.7828C31.6458 12.5421 30.891 12.3111 29.8493 12.3276C28.6018 12.3276 28.0246 12.8557 28.0246 13.3496C28.0174 13.9062 28.6994 14.273 29.8129 14.8226C31.6511 15.6707 32.4998 16.6992 32.4879 18.051C32.4632 20.5175 30.2891 22.1106 26.94 22.1106C25.5112 22.0957 24.1352 21.8085 23.3911 21.4767L23.8381 18.8168L24.2488 19.0056C25.2951 19.4491 25.9726 19.6292 27.2477 19.6292C28.1635 19.6292 29.1459 19.2655 29.1538 18.469C29.1598 17.949 28.7429 17.5776 27.5027 16.9951C26.2943 16.4268 24.6934 15.4743 24.7111 13.7669C24.7301 11.4573 26.9475 9.8457 30.0957 9.8457Z" fill="#1A1F71"></path>
      <path fill-rule="evenodd" clip-rule="evenodd" d="M38.6879 10.0884H41.1497L43.7283 21.9627H40.772C40.772 21.9627 40.4797 20.5983 40.3844 20.1822C40.1382 20.1822 39.1098 20.1808 38.1429 20.1795C37.2852 20.1783 36.476 20.1772 36.3041 20.1772C36.1804 20.4987 35.6335 21.9627 35.6335 21.9627H32.288L37.0196 11.0738C37.3544 10.3 37.9253 10.0884 38.6879 10.0884ZM37.2438 17.7609H39.8884C39.7608 17.1662 39.1508 14.3299 39.1508 14.3299L38.9355 13.3055C38.8508 13.5403 38.7331 13.8509 38.6432 14.0878C38.5624 14.301 38.5042 14.4545 38.5131 14.4395C38.5131 14.4395 37.5074 17.076 37.2438 17.7609Z" fill="#1A1F71"></path>
      <path d="M12.4324 18.1914L15.5515 10.0884L18.9265 10.0883L13.9107 21.9478L10.5398 21.9516L7.7128 11.6518C6.72807 11.0939 5.60303 10.6457 4.34375 10.3358L4.38447 10.0886H9.52187C10.2138 10.1148 10.7733 10.3397 10.9661 11.0921L12.0498 16.389C12.0674 16.441 12.0842 16.4929 12.1001 16.5448L12.4324 18.1914Z" fill="#1A1F71"></path>
    </g>
    <rect x="0.921875" y="0.5" width="47" height="31" rx="3.5" stroke="#D5DEE8"></rect>
    <defs>
      <clipPath id="clip0_4046_176980">
        <rect width="39.3846" height="12.3077" fill="white" transform="translate(4.34375 9.8457)"></rect>
      </clipPath>
    </defs>
  </symbol>
  <symbol viewBox="0 0 49 32" fill="none" xmlns="http://www.w3.org/2000/svg" id="pix">
    <rect x="0.428571" y="0.428571" width="47.1429" height="31.1429" rx="3" fill="white"/>
    <rect x="0.428571" y="0.428571" width="47.1429" height="31.1429" rx="3" stroke="#E6ECF2" stroke-width="0.857143"/>
    <g clip-path="url(#clip0_19974_39568)">
      <path d="M21.0015 21.2049V14.323C21.0015 13.0568 22.028 12.0303 23.2942 12.0303L25.3261 12.0333C26.5887 12.0358 27.6109 13.0601 27.6109 14.3227V15.7875C27.6109 17.0538 26.5843 18.0803 25.3181 18.0803H22.4469" stroke="#20252A" stroke-width="0.5" stroke-miterlimit="10" stroke-linecap="round" stroke-linejoin="round"/>
      <path d="M28.1787 12.0294H29.0601C29.5798 12.0294 30.001 12.4506 30.001 12.9703V18.1111" stroke="#20252A" stroke-width="0.5" stroke-miterlimit="10" stroke-linecap="round" stroke-linejoin="round"/>
      <path d="M29.812 11.2329L29.4123 10.8332C29.3131 10.734 29.3131 10.5732 29.4123 10.474L29.8118 10.0745C29.9111 9.97517 30.0722 9.97517 30.1714 10.0745L30.5709 10.474C30.6701 10.5732 30.6701 10.734 30.5709 10.8332L30.1712 11.2329C30.072 11.3321 29.9112 11.3321 29.812 11.2329Z" fill="#32BCAD"/>
      <path d="M31.6919 12.0248H32.566C33.0157 12.0248 33.447 12.2034 33.7649 12.5213L35.8094 14.5659C36.0742 14.8307 36.5036 14.8307 36.7685 14.5659L38.8055 12.5288C39.1235 12.2109 39.5547 12.0323 40.0044 12.0323H40.7151" stroke="#20252A" stroke-width="0.5" stroke-miterlimit="10" stroke-linecap="round" stroke-linejoin="round"/>
      <path d="M31.6919 18.0661H32.566C33.0157 18.0661 33.447 17.8874 33.7649 17.5695L35.8094 15.525C36.0742 15.2601 36.5036 15.2601 36.7685 15.525L38.8055 17.562C39.1235 17.8799 39.5547 18.0586 40.0044 18.0586H40.7151" stroke="#20252A" stroke-width="0.5" stroke-miterlimit="10" stroke-linecap="round" stroke-linejoin="round"/>
      <path d="M15.7901 19.3723C15.3515 19.3723 14.9388 19.2014 14.6286 18.8914L12.9515 17.2142C12.8337 17.0961 12.6285 17.0965 12.5108 17.2142L10.8275 18.8975C10.5173 19.2076 10.1047 19.3784 9.66596 19.3784H9.33545L11.4596 21.5025C12.123 22.1659 13.1985 22.1659 13.862 21.5025L15.9922 19.3723H15.7901Z" fill="#32BCAD"/>
      <path d="M9.66587 13.4399C10.1046 13.4399 10.5172 13.6107 10.8274 13.9207L12.5107 15.6043C12.6319 15.7256 12.8298 15.726 12.9514 15.6042L14.6285 13.9269C14.9387 13.6168 15.3513 13.446 15.79 13.446H15.992L13.8619 11.3158C13.1984 10.6524 12.1229 10.6524 11.4595 11.3158L9.33545 13.4399L9.66587 13.4399Z" fill="#32BCAD"/>
      <path d="M17.7541 15.208L16.4668 13.9207C16.4385 13.932 16.4078 13.9391 16.3754 13.9391H15.7901C15.4875 13.9391 15.1913 14.0619 14.9775 14.2758L13.3004 15.953C13.1434 16.1099 12.9372 16.1884 12.7312 16.1884C12.5249 16.1884 12.3189 16.1099 12.162 15.9531L10.4785 14.2697C10.2647 14.0557 9.96851 13.933 9.66592 13.933H8.94624C8.91555 13.933 8.88686 13.9258 8.85978 13.9156L7.56738 15.208C6.90397 15.8714 6.90397 16.9469 7.56738 17.6103L8.85973 18.9027C8.88686 18.8925 8.91555 18.8852 8.94624 18.8852H9.66592C9.96851 18.8852 10.2647 18.7625 10.4785 18.5486L12.1618 16.8653C12.4661 16.5613 12.9964 16.5612 13.3004 16.8654L14.9775 18.5424C15.1913 18.7564 15.4875 18.8791 15.7901 18.8791H16.3754C16.4078 18.8791 16.4385 18.8862 16.4668 18.8976L17.7541 17.6103C18.4175 16.9469 18.4175 15.8714 17.7541 15.208Z" fill="#32BCAD"/>
      <path d="M22.7488 20.6199C22.6538 20.6199 22.5432 20.6428 22.4339 20.668V21.0874C22.5096 21.115 22.5961 21.1284 22.6791 21.1284C22.8894 21.1284 22.9891 21.0574 22.9891 20.8722C22.9891 20.6981 22.9074 20.6199 22.7488 20.6199ZM22.3629 21.3987V20.5694H22.4206L22.4267 20.6055C22.524 20.5827 22.6586 20.5526 22.7547 20.5526C22.8329 20.5526 22.9074 20.5645 22.9699 20.6151C23.042 20.674 23.0649 20.7689 23.0649 20.8722C23.0649 20.9806 23.0287 21.0826 22.9302 21.1391C22.8617 21.1775 22.7692 21.1932 22.6863 21.1932C22.6009 21.1932 22.5192 21.1799 22.4339 21.1547V21.3987H22.3629Z" fill="#20252A"/>
      <path d="M23.5929 20.6174C23.3825 20.6174 23.2888 20.6836 23.2888 20.8687C23.2888 21.0477 23.3813 21.1283 23.5929 21.1283C23.802 21.1283 23.8957 21.0634 23.8957 20.8783C23.8957 20.6992 23.8032 20.6174 23.5929 20.6174ZM23.8633 21.1283C23.7935 21.1787 23.6998 21.1932 23.5929 21.1932C23.4835 21.1932 23.3897 21.1776 23.3212 21.1283C23.2443 21.0743 23.213 20.9852 23.213 20.8736C23.213 20.7629 23.2443 20.6729 23.3212 20.6174C23.3897 20.5683 23.4835 20.5526 23.5929 20.5526C23.701 20.5526 23.7935 20.5683 23.8633 20.6174C23.9414 20.6729 23.9714 20.7629 23.9714 20.8722C23.9714 20.9841 23.9402 21.0743 23.8633 21.1283Z" fill="#20252A"/>
      <path d="M24.8588 21.1764L24.6245 20.6729H24.6196L24.3889 21.1764H24.3252L24.0752 20.5694H24.1533L24.3613 21.0789H24.3661L24.592 20.5694H24.6569L24.8889 21.0789H24.8937L25.0968 20.5694H25.1725L24.9225 21.1764H24.8588Z" fill="#20252A"/>
      <path d="M25.6259 20.6163C25.4312 20.6163 25.3651 20.7028 25.353 20.8279H25.8987C25.8928 20.6897 25.8218 20.6163 25.6259 20.6163ZM25.6235 21.1932C25.5069 21.1932 25.4312 21.1764 25.3711 21.1258C25.3002 21.0646 25.2761 20.9757 25.2761 20.8735C25.2761 20.7762 25.3086 20.6728 25.3892 20.6139C25.4564 20.5671 25.5394 20.5526 25.6259 20.5526C25.7041 20.5526 25.7942 20.561 25.8686 20.6115C25.9564 20.6704 25.9733 20.7738 25.9733 20.8915H25.3507C25.353 21.0165 25.3939 21.1271 25.6295 21.1271C25.7413 21.1271 25.8458 21.1091 25.9432 21.0922V21.1559C25.8422 21.174 25.7304 21.1932 25.6235 21.1932Z" fill="#20252A"/>
      <path d="M26.1768 21.1764V20.5694H26.2344L26.2405 20.6055C26.3691 20.5731 26.4292 20.5526 26.5422 20.5526H26.5506V20.6199H26.5337C26.4388 20.6199 26.3811 20.6331 26.2478 20.668V21.1764H26.1768Z" fill="#20252A"/>
      <path d="M26.9624 20.6163C26.7678 20.6163 26.7017 20.7028 26.6896 20.8279H27.2353C27.2293 20.6897 27.1583 20.6163 26.9624 20.6163ZM26.9601 21.1932C26.8434 21.1932 26.7678 21.1764 26.7077 21.1258C26.6367 21.0646 26.6127 20.9757 26.6127 20.8735C26.6127 20.7762 26.6452 20.6728 26.7257 20.6139C26.793 20.5671 26.8759 20.5526 26.9624 20.5526C27.0406 20.5526 27.1307 20.561 27.2052 20.6115C27.293 20.6704 27.3098 20.7738 27.3098 20.8915H26.6872C26.6896 21.0165 26.7305 21.1271 26.966 21.1271C27.0778 21.1271 27.1823 21.1091 27.2798 21.0922V21.1559C27.1788 21.174 27.067 21.1932 26.9601 21.1932Z" fill="#20252A"/>
      <path d="M28.0866 20.6584C28.0109 20.6307 27.9244 20.6174 27.8414 20.6174C27.6311 20.6174 27.5313 20.6885 27.5313 20.8735C27.5313 21.0489 27.613 21.1258 27.7716 21.1258C27.8666 21.1258 27.9772 21.103 28.0866 21.0789V20.6584ZM28.0998 21.1764L28.0938 21.1402C27.9964 21.1631 27.8618 21.1932 27.7656 21.1932C27.6876 21.1932 27.613 21.1824 27.5505 21.1307C27.4784 21.0718 27.4556 20.9768 27.4556 20.8735C27.4556 20.7653 27.4916 20.6631 27.5902 20.6078C27.6587 20.5682 27.7512 20.5526 27.8354 20.5526C27.9195 20.5526 28.0013 20.5671 28.0866 20.5911V20.3134H28.1575V21.1764H28.0998Z" fill="#20252A"/>
      <path d="M29.1973 20.6199C29.1023 20.6199 28.9917 20.6428 28.8823 20.668V21.0862C28.9593 21.115 29.0446 21.1283 29.1276 21.1283C29.3379 21.1283 29.4376 21.0574 29.4376 20.8722C29.4376 20.698 29.3559 20.6199 29.1973 20.6199ZM29.3788 21.139C29.3102 21.1775 29.2177 21.1932 29.1347 21.1932C29.0446 21.1932 28.9545 21.1775 28.8632 21.1475L28.8595 21.1764H28.8114V20.3134H28.8823V20.603C28.9797 20.5815 29.1107 20.5526 29.2032 20.5526C29.2814 20.5526 29.3559 20.5645 29.4183 20.6151C29.4905 20.674 29.5133 20.7689 29.5133 20.8722C29.5133 20.9805 29.4772 21.0826 29.3788 21.139Z" fill="#20252A"/>
      <path d="M29.6075 21.4095V21.3435C29.6423 21.347 29.6749 21.3495 29.6977 21.3495C29.7855 21.3495 29.8383 21.3242 29.8875 21.2244L29.9104 21.1764L29.5931 20.5694H29.6749L29.9465 21.0934H29.9513L30.2097 20.5694H30.2902L29.9489 21.2509C29.8864 21.3747 29.8191 21.4155 29.6953 21.4155C29.6676 21.4155 29.6376 21.4131 29.6075 21.4095Z" fill="#20252A"/>
      <path d="M31.2676 20.8302H31.0321V21.043H31.2687C31.431 21.043 31.4924 21.0249 31.4924 20.936C31.4924 20.841 31.4083 20.8302 31.2676 20.8302ZM31.2244 20.4853H31.0321V20.7015H31.2255C31.3854 20.7015 31.4491 20.6824 31.4491 20.5922C31.4491 20.4962 31.3686 20.4853 31.2244 20.4853ZM31.5897 21.1187C31.5031 21.174 31.3986 21.1764 31.2075 21.1764H30.8481V20.3531H31.1991C31.3637 20.3531 31.4647 20.3555 31.5488 20.406C31.609 20.4421 31.6329 20.4973 31.6329 20.5694C31.6329 20.6559 31.597 20.7137 31.5031 20.7521V20.7569C31.609 20.781 31.6774 20.8351 31.6774 20.9516C31.6774 21.0309 31.6486 21.0826 31.5897 21.1187Z" fill="#20252A"/>
      <path d="M32.3964 20.9216C32.3254 20.9155 32.2533 20.912 32.1776 20.912C32.0538 20.912 32.0105 20.9372 32.0105 20.9936C32.0105 21.0465 32.0466 21.0754 32.1415 21.0754C32.2208 21.0754 32.3158 21.0574 32.3964 21.0393V20.9216ZM32.4324 21.1764L32.4276 21.1403C32.3242 21.1656 32.2041 21.1932 32.0982 21.1932C32.0333 21.1932 31.9636 21.1847 31.9143 21.1487C31.8687 21.1163 31.847 21.0634 31.847 21.0021C31.847 20.9335 31.8771 20.8698 31.9492 20.8374C32.0129 20.8074 32.0982 20.805 32.1764 20.805C32.2401 20.805 32.3254 20.8086 32.3964 20.8134V20.8025C32.3964 20.7076 32.3338 20.6764 32.1631 20.6764C32.097 20.6764 32.0165 20.6799 31.9396 20.6871V20.5645C32.0249 20.5575 32.1211 20.5526 32.2004 20.5526C32.3061 20.5526 32.4156 20.561 32.4829 20.609C32.5525 20.6584 32.5658 20.7269 32.5658 20.8169V21.1764L32.4324 21.1764Z" fill="#20252A"/>
      <path d="M33.3583 21.1764V20.841C33.3583 20.7305 33.3019 20.6908 33.2008 20.6908C33.1264 20.6908 33.0327 20.71 32.9533 20.7293V21.1764H32.7838V20.5694H32.922L32.928 20.6079C33.035 20.5803 33.154 20.5526 33.2526 20.5526C33.327 20.5526 33.4028 20.5634 33.4605 20.6151C33.5085 20.6584 33.5266 20.7184 33.5266 20.805V21.1764H33.3583Z" fill="#20252A"/>
      <path d="M34.0054 21.1932C33.9272 21.1932 33.8418 21.1824 33.7794 21.1295C33.7049 21.0694 33.6832 20.9745 33.6832 20.8722C33.6832 20.7761 33.7145 20.6715 33.807 20.6127C33.8828 20.5634 33.9765 20.5526 34.0738 20.5526C34.1436 20.5526 34.2121 20.5574 34.2878 20.5645V20.6943C34.2264 20.6885 34.1531 20.6836 34.0943 20.6836C33.9332 20.6836 33.8575 20.7341 33.8575 20.8735C33.8575 21.0046 33.914 21.061 34.0462 21.061C34.1231 21.061 34.2133 21.0466 34.301 21.0297V21.1547C34.206 21.174 34.1027 21.1932 34.0054 21.1932Z" fill="#20252A"/>
      <path d="M34.8016 20.6799C34.6405 20.6799 34.5695 20.7305 34.5695 20.8687C34.5695 21.0069 34.6393 21.0659 34.8016 21.0659C34.9614 21.0659 35.031 21.0165 35.031 20.8783C35.031 20.7401 34.9626 20.6799 34.8016 20.6799ZM35.0924 21.1295C35.0179 21.1799 34.9205 21.1932 34.8016 21.1932C34.6801 21.1932 34.5828 21.1787 34.5095 21.1295C34.4254 21.0742 34.3953 20.9829 34.3953 20.8735C34.3953 20.7641 34.4254 20.6715 34.5095 20.6163C34.5828 20.567 34.6801 20.5526 34.8016 20.5526C34.9218 20.5526 35.0179 20.567 35.0924 20.6163C35.1765 20.6715 35.2054 20.7641 35.2054 20.8722C35.2054 20.9817 35.1753 21.0742 35.0924 21.1295Z" fill="#20252A"/>
      <path d="M36.1837 21.1932C36.0817 21.1932 35.9711 21.1764 35.8881 21.1079C35.7896 21.0261 35.7595 20.8999 35.7595 20.764C35.7595 20.6428 35.798 20.4985 35.9266 20.4144C36.0263 20.3496 36.1501 20.3363 36.2751 20.3363C36.3665 20.3363 36.4602 20.3423 36.5624 20.3507V20.4985C36.4746 20.4913 36.3665 20.4853 36.2824 20.4853C36.0479 20.4853 35.9482 20.5743 35.9482 20.764C35.9482 20.9577 36.0407 21.0442 36.2138 21.0442C36.3268 21.0442 36.453 21.0214 36.5804 20.9948V21.1414C36.453 21.1668 36.3195 21.1932 36.1837 21.1932Z" fill="#20252A"/>
      <path d="M37.0783 20.6607C36.9377 20.6607 36.8836 20.7113 36.8728 20.8038H37.2815C37.2766 20.7053 37.2189 20.6607 37.0783 20.6607ZM37.053 21.1932C36.9533 21.1932 36.8632 21.1812 36.7958 21.1258C36.7238 21.0658 36.6985 20.9756 36.6985 20.8722C36.6985 20.7797 36.7286 20.6764 36.8127 20.6162C36.8872 20.5634 36.9822 20.5526 37.0783 20.5526C37.1649 20.5526 37.267 20.5622 37.3415 20.6139C37.4389 20.6824 37.4473 20.7882 37.4485 20.9131H36.8716C36.8752 21.0057 36.9245 21.0658 37.0951 21.0658C37.2009 21.0658 37.3186 21.0502 37.4185 21.0346V21.1535C37.3019 21.1728 37.1745 21.1932 37.053 21.1932Z" fill="#20252A"/>
      <path d="M38.2025 21.1764V20.841C38.2025 20.7305 38.1461 20.6908 38.0451 20.6908C37.9706 20.6908 37.8769 20.71 37.7975 20.7293V21.1764H37.6281V20.5694H37.7663L37.7723 20.6079C37.8792 20.5803 37.9983 20.5526 38.0968 20.5526C38.1713 20.5526 38.247 20.5634 38.3047 20.6151C38.3527 20.6584 38.3708 20.7184 38.3708 20.805V21.1764H38.2025Z" fill="#20252A"/>
      <path d="M38.8532 21.1932C38.7715 21.1932 38.697 21.1703 38.6561 21.1067C38.6261 21.0633 38.6116 21.0046 38.6116 20.9228V20.6955H38.489V20.5694H38.6116L38.6297 20.3855H38.7799V20.5694H39.019V20.6955H38.7799V20.8903C38.7799 20.9372 38.7835 20.9768 38.7967 21.0057C38.8147 21.0466 38.8544 21.0621 38.9073 21.0621C38.9469 21.0621 38.995 21.0561 39.0286 21.0502V21.1715C38.9734 21.1824 38.9096 21.1932 38.8532 21.1932Z" fill="#20252A"/>
      <path d="M39.1843 21.1764V20.5694H39.3226L39.3286 20.6079C39.4404 20.5766 39.5233 20.5526 39.6291 20.5526C39.6339 20.5526 39.6411 20.5526 39.6506 20.5538V20.698C39.6314 20.6969 39.6086 20.6969 39.5918 20.6969C39.5088 20.6969 39.4464 20.7064 39.3538 20.7281V21.1764L39.1843 21.1764Z" fill="#20252A"/>
      <path d="M40.2667 20.9216C40.1958 20.9155 40.1237 20.912 40.048 20.912C39.9242 20.912 39.8808 20.9372 39.8808 20.9936C39.8808 21.0465 39.917 21.0754 40.0119 21.0754C40.0912 21.0754 40.1861 21.0574 40.2667 21.0393V20.9216ZM40.3027 21.1764L40.298 21.1403C40.1946 21.1656 40.0744 21.1932 39.9686 21.1932C39.9037 21.1932 39.834 21.1847 39.7847 21.1487C39.7391 21.1163 39.7174 21.0634 39.7174 21.0021C39.7174 20.9335 39.7475 20.8698 39.8196 20.8374C39.8833 20.8074 39.9686 20.805 40.0468 20.805C40.1105 20.805 40.1958 20.8086 40.2667 20.8134V20.8025C40.2667 20.7076 40.2042 20.6764 40.0335 20.6764C39.9674 20.6764 39.8869 20.6799 39.81 20.6871V20.5645C39.8953 20.5575 39.9915 20.5526 40.0708 20.5526C40.1765 20.5526 40.286 20.561 40.3532 20.609C40.4229 20.6584 40.4362 20.7269 40.4362 20.8169V21.1764L40.3027 21.1764Z" fill="#20252A"/>
      <path d="M40.6542 20.3134H40.8236V21.1764H40.6542V20.3134Z" fill="#20252A"/>
    </g>
    <defs>
      <clipPath id="clip0_19974_39568">
        <rect width="33.8603" height="12" fill="white" transform="translate(7.06982 10)"/>
      </clipPath>
    </defs>
  </symbol>
</svg>
